<?xml version="1.0" encoding="UTF-8" standalone="no"?>
<svg
   xmlns:dc="http://purl.org/dc/elements/1.1/"
   xmlns:cc="http://creativecommons.org/ns#"
   xmlns:rdf="http://www.w3.org/1999/02/22-rdf-syntax-ns#"
   xmlns:svg="http://www.w3.org/2000/svg"
   xmlns="http://www.w3.org/2000/svg"
   width="150"
   height="150"
   viewBox="0 0 150 150"
   fill="none"
   version="1.1"
   id="svg29">
  <metadata
     id="metadata33">
    <rdf:RDF>
      <cc:Work
         rdf:about="">
        <dc:format>image/svg+xml</dc:format>
        <dc:type
           rdf:resource="http://purl.org/dc/dcmitype/StillImage" />
      </cc:Work>
    </rdf:RDF>
  </metadata>
  <defs
     id="defs4">
    <style
       type="text/css"
       id="style2">
  	@font-face {
        font-family: PT Sans Narrow;
        font-weight: 700;
        src: url('https://tnbt.dev/fonts/PTSansNarrow-Bold.ttf');
    }
  	@font-face {
	    font-family: Work Sans;
        font-weight: 400;
	    src: url('https://tnbt.dev/fonts/WorkSans-Regular.ttf');
    }
	</style>
  </defs>
  <path
     d="M140 0H10C7.34784 0 4.8043 1.05357 2.92893 2.92893C1.05357 4.8043 0 7.34784 0 10L0 140C0 142.652 1.05357 145.196 2.92893 147.071C4.8043 148.946 7.34784 150 10 150H140C142.652 150 145.196 148.946 147.071 147.071C148.946 145.196 150 142.652 150 140V10C150 7.34784 148.946 4.8043 147.071 2.92893C145.196 1.05357 142.652 0 140 0Z"
     fill="white"
     id="path6" />
  <path
     fill-rule="evenodd"
     clip-rule="evenodd"
     d="M36.8492 124.399C38.6998 125.863 40.5505 127.25 42.5553 128.56C42.9409 128.791 43.0951 129.254 42.9409 129.639C42.7096 130.024 42.2469 130.101 41.8614 129.87C39.8565 128.483 37.9287 127.096 36.078 125.555C34.2274 124.014 32.4538 122.396 30.7574 120.701C28.8296 118.775 26.979 116.694 25.2826 114.537C22.9692 115.77 19.9619 116.155 16.8775 115.385C13.6388 114.614 11.0942 112.765 9.70619 110.53C11.9424 109.221 15.1039 108.835 18.2655 109.606C20.1932 110.068 21.9668 110.993 23.3548 112.148L23.3547 112.148C22.7378 111.301 22.121 110.453 21.5812 109.529C20.2704 107.525 19.0366 105.445 17.957 103.288C17.1088 101.593 16.3377 99.8975 15.6437 98.2024C15.6437 98.2795 15.663 98.3565 15.6823 98.4336C15.7015 98.5106 15.7208 98.5877 15.7208 98.6647C13.4075 98.9729 10.7086 98.3565 8.3182 96.7385C6.00488 95.1204 4.46266 92.8089 4 90.4974C6.31332 90.1122 9.0122 90.7286 11.4026 92.5007C12.9448 93.5794 14.1015 94.8893 14.8726 96.3532L14.7184 95.968L14.5642 95.5827C14.5256 95.5057 14.5063 95.4286 14.4871 95.3516C14.4678 95.2745 14.4485 95.1975 14.4099 95.1204L13.7931 93.4253L13.2533 91.7302C13.1762 91.4991 13.0991 91.1909 13.022 90.8827L12.7906 90.0351C12.1737 87.7236 11.7111 85.4121 11.3255 83.0236C11.0942 81.6367 10.94 80.1727 10.7857 78.7088C8.85797 78.0153 7.00732 76.4743 5.77355 74.3169C4.46266 72.0054 4.07711 69.4628 4.61689 67.3824C6.69887 67.9988 8.70375 69.5398 10.0146 71.8513C10.1689 72.2366 10.3231 72.5448 10.4773 72.853V72.2366V71.7743V71.312V70.3874L10.5544 68.6152C10.7857 64.7627 11.2484 60.9102 12.0966 57.1348C10.3231 56.2872 8.70375 54.5921 7.77842 52.2806C6.8531 49.9691 6.8531 47.5806 7.6242 45.7314C9.39775 46.5789 11.0171 48.274 11.9424 50.5855C12.4822 51.8954 12.7135 53.2823 12.6364 54.5921C12.7135 54.5151 12.7135 54.438 12.7135 54.361C12.7521 54.2069 12.7906 54.0721 12.8292 53.9372C12.8677 53.8024 12.9063 53.6675 12.9448 53.5134L13.1762 52.6659L13.4075 51.8183L13.5617 51.356C13.6003 51.279 13.6196 51.2019 13.6388 51.1249C13.6581 51.0478 13.6774 50.9708 13.7159 50.8937L14.2557 49.1986L14.4099 48.7363L14.4871 48.5052L14.5642 48.274L14.9497 47.4265L15.3353 46.4248C14.1015 45.192 13.1762 43.2658 12.9448 41.1084C12.7135 38.7969 13.3304 36.7165 14.4871 35.2526C15.875 36.4854 16.8775 38.4116 17.1088 40.7231V42.2641L17.8028 40.8002C17.8799 40.569 18.0341 40.2608 18.1884 40.0297L18.5739 39.2592L18.9595 38.4887C18.998 38.4116 19.0366 38.3539 19.0751 38.2961C19.1137 38.2383 19.1523 38.1805 19.1908 38.1034L19.4221 37.7182L19.4993 37.3329C18.5739 36.1001 18.1113 34.328 18.2655 32.4788C18.4197 30.5525 19.2679 28.8574 20.5017 27.7787C21.5041 29.0886 22.0439 30.8607 21.8897 32.864C21.8897 33.0952 21.8897 33.4034 21.8126 33.6345L22.0439 33.3263L22.1981 33.1722L22.3523 33.0181L23.3548 31.5542C23.5861 31.3231 23.7403 31.0919 23.8945 30.8608L23.8946 30.8607L24.4343 30.1673L24.8199 29.6279C24.897 28.0099 25.591 26.1607 27.0561 24.6197C28.5212 23.0016 30.449 22.077 32.2225 22C32.2225 23.7721 31.4514 25.7754 29.9863 27.3935C28.5983 28.9345 26.8248 29.782 25.2054 30.0132L24.8199 30.5525L24.4343 31.0148C24.203 31.246 24.0488 31.4771 23.8946 31.7083L23.4319 32.3247C24.0488 31.7853 24.8199 31.323 25.6681 31.0148C27.3645 30.3984 29.061 30.3984 30.3719 31.0148C29.6779 32.3247 28.4441 33.4804 26.7477 34.0968C25.1283 34.7132 23.509 34.7132 22.1981 34.1739L21.8897 34.7132L21.427 35.4837C21.3885 35.5608 21.3499 35.6186 21.3113 35.6764C21.2728 35.7342 21.2342 35.7919 21.1957 35.869L20.9644 36.2542L20.1161 37.7952L19.8848 38.1805C19.8462 38.2575 19.8077 38.3153 19.7691 38.3731C19.7306 38.4309 19.692 38.4887 19.6535 38.5657L19.345 39.1051C20.1161 38.3346 21.1957 37.6411 22.5066 37.1788C24.5114 36.4854 26.5934 36.5624 28.2128 37.3329C27.4417 38.8739 25.8994 40.2608 23.8174 40.9543C21.8897 41.6477 19.9619 41.5707 18.4197 40.9543V41.0313L17.6486 42.6494C17.549 42.7987 17.4816 42.9479 17.4048 43.1179C17.3626 43.2112 17.3177 43.3107 17.263 43.4199L16.9546 44.2674L16.2606 45.8855L15.6437 47.5806L15.3353 48.4281L15.2582 48.6593L15.1811 48.8904L15.1039 49.1216C16.0293 48.0429 17.1859 47.1183 18.651 46.4248C20.8872 45.4232 23.2777 45.2691 25.1283 45.9625C24.3572 47.8117 22.7379 49.5068 20.5017 50.5085C18.4968 51.4331 16.2606 51.5872 14.4871 51.1249C14.4871 51.2152 14.4606 51.279 14.4387 51.3319C14.4232 51.3693 14.4099 51.4012 14.4099 51.4331L14.2557 51.8954L14.0244 52.7429L13.7931 53.5905C13.7545 53.7446 13.7159 53.8794 13.6774 54.0143C13.6388 54.1491 13.6003 54.2839 13.5617 54.438C12.8677 57.1348 12.328 59.9086 12.0195 62.6824C12.6364 61.4496 13.6388 60.2168 14.8726 59.2151C16.9546 57.52 19.4221 56.7495 21.5812 56.9807C21.2728 59.061 20.039 61.2955 17.957 62.9906C16.0293 64.5316 13.7931 65.3021 11.7882 65.225L11.5568 68.4611V70.2333V71.1579V71.6202V72.0825V73.8546L11.634 75.6268C11.7882 77.9383 12.0195 80.3268 12.4051 82.6383V82.7924C12.6364 81.4055 13.1762 79.8645 14.1015 78.4776C15.7208 76.012 17.957 74.394 20.2704 73.8546C20.733 76.1661 20.1932 78.9399 18.651 81.4055C17.1859 83.64 15.1039 85.181 13.022 85.8744L13.9473 89.5728L14.1786 90.4204C14.2172 90.5745 14.2557 90.7093 14.2943 90.8442C14.3328 90.979 14.3714 91.1138 14.4099 91.2679L14.9497 92.963L15.5666 94.6581C15.6099 94.7014 15.6289 94.769 15.6509 94.8472C15.668 94.9082 15.687 94.9758 15.7208 95.0434L15.875 95.4286L16.1835 96.2762C16.9546 98.3565 17.8799 100.36 18.8824 102.286C18.651 100.822 18.651 99.2811 18.9595 97.7401C19.5764 94.6581 21.2728 92.1155 23.3548 90.6515C24.6657 92.8089 25.2054 95.8139 24.5886 98.8959C23.9717 101.747 22.5066 104.135 20.6559 105.599C21.0029 106.139 21.3306 106.659 21.6583 107.179C21.986 107.699 22.3138 108.219 22.6608 108.758C24.4343 111.532 26.5163 114.229 28.7525 116.694C28.5212 115.153 28.5983 113.381 29.1381 111.686C29.9863 109.066 31.6827 107.063 33.6105 105.984C34.6129 107.988 34.8443 110.607 33.9961 113.227C33.3021 115.462 31.9912 117.234 30.3719 118.39C30.7574 118.852 31.143 119.237 31.6056 119.699C33.225 121.394 34.9985 122.935 36.8492 124.399ZM8.38117 64.0548C9.53641 63.7597 10.1308 62.1836 9.7089 60.5346C9.28694 58.8855 8.00838 57.788 6.85315 58.0831C5.69792 58.3782 5.10347 59.9543 5.52543 61.6033C5.94738 63.2524 7.22594 64.3499 8.38117 64.0548ZM16.9219 71.6725C17.9596 70.3767 18.0731 68.7443 17.1752 68.0264C16.2774 67.3086 14.7084 67.7771 13.6707 69.0729C12.6329 70.3687 12.5195 72.0011 13.4173 72.719C14.3151 73.4368 15.8842 72.9683 16.9219 71.6725ZM18.7098 86.3574C19.8872 86.7299 20.4042 88.4131 19.8644 90.1171C19.3245 91.8211 17.9324 92.9005 16.7549 92.528C15.5775 92.1556 15.0605 90.4724 15.6003 88.7684C16.1402 87.0644 17.5323 85.985 18.7098 86.3574ZM23.9716 106.678C24.5114 104.906 25.8994 103.827 27.1332 104.212C28.2898 104.598 28.8296 106.293 28.2898 108.065C27.7501 109.837 26.3621 110.916 25.1283 110.53C23.9716 110.145 23.4319 108.45 23.9716 106.678ZM28.3536 120.896C28.4572 122.168 27.0616 123.32 25.2364 123.468C23.4112 123.617 21.8475 122.706 21.7439 121.433C21.6403 120.161 23.0359 119.009 24.8611 118.861C26.6863 118.712 28.2499 119.623 28.3536 120.896ZM16.7807 104.407C17.1662 103.19 16.0635 101.756 14.3176 101.204C12.5717 100.651 10.8438 101.19 10.4582 102.408C10.0726 103.625 11.1753 105.059 12.9213 105.611C14.6672 106.163 16.3951 105.624 16.7807 104.407ZM9.57466 83.5133C10.8255 84.6687 11.1834 86.3146 10.374 87.1895C9.56453 88.0644 7.89433 87.837 6.64347 86.6816C5.3926 85.5262 5.03474 83.8803 5.84417 83.0054C6.65359 82.1305 8.32379 82.3578 9.57466 83.5133Z"
     fill="#3DB9D8"
     id="path8" />
  <path
     fill-rule="evenodd"
     clip-rule="evenodd"
     d="M131.689 109.437C129.54 109.977 127.698 110.979 126.317 112.213C126.748 111.635 127.149 111.027 127.558 110.408C127.804 110.036 128.053 109.659 128.312 109.283C129.617 107.278 130.768 105.196 131.919 103.037C132.678 101.512 133.399 99.986 134.055 98.4332C134.067 98.453 134.079 98.4724 134.092 98.4914C134.915 99.6801 138.206 98.8109 141.442 96.5499C144.678 94.289 146.635 91.4925 145.812 90.3038C144.989 89.1151 141.699 89.9844 138.462 92.2453C137.22 93.113 136.167 94.0596 135.387 94.9638C135.402 94.9049 135.42 94.846 135.45 94.7871L136.064 93.0908L136.601 91.3945C136.639 91.2403 136.677 91.1054 136.716 90.9704C136.754 90.8355 136.793 90.7006 136.831 90.5463L137.061 89.6982C137.675 87.385 138.212 84.9948 138.519 82.6816C138.75 81.2166 138.903 79.8287 139.057 78.3638C140.975 77.6698 142.894 76.1277 144.122 73.9688C145.427 71.6556 145.811 69.1112 145.273 67.0293C143.201 67.6462 141.206 69.1883 139.901 71.5014C139.671 71.8869 139.517 72.2724 139.364 72.6579L139.364 72.658V71.8869V71.4243V70.9617V70.0364L139.287 68.263C139.058 64.3549 138.602 60.5229 137.768 56.7672C139.603 55.9166 141.208 54.2234 142.05 51.9167C142.971 49.6036 142.971 47.2133 142.203 45.3628C140.361 46.211 138.75 47.9073 137.905 50.2204C137.291 51.6854 137.138 53.2275 137.291 54.6154C137.253 54.5383 137.234 54.4419 137.215 54.3456C137.196 54.2492 137.176 54.1528 137.138 54.0757C137.1 53.9215 137.061 53.7865 137.023 53.6516C136.985 53.5167 136.946 53.3817 136.908 53.2275L136.678 52.3794L136.447 51.5312L136.294 51.0686C136.255 50.9915 136.236 50.9144 136.217 50.8373C136.198 50.7602 136.179 50.6831 136.14 50.606L135.603 48.9096L135.45 48.447L135.373 48.2157L135.296 47.9844L134.989 47.1362L134.605 46.1339C135.91 44.9002 136.831 42.9726 137.061 40.8136C137.291 38.5005 136.678 36.4186 135.526 34.9536C134.145 36.1873 133.147 38.1149 132.917 40.4281C132.84 41.0449 132.84 41.5847 132.917 42.1244L132.149 40.5823C132.095 40.4731 132.041 40.3735 131.99 40.2802L131.99 40.2801C131.897 40.11 131.815 39.9606 131.766 39.8113L131.382 39.0402L130.998 38.2692C130.96 38.1921 130.921 38.1342 130.883 38.0764L130.883 38.0764C130.845 38.0186 130.806 37.9607 130.768 37.8836L130.538 37.4981L130.461 37.3439C131.382 36.1102 131.842 34.3368 131.689 32.4092C131.535 30.4044 130.614 28.7081 129.463 27.7058C128.465 28.9394 127.928 30.79 128.082 32.7947C128.082 33.0593 128.138 33.3238 128.203 33.5884L128.005 33.2573L127.851 33.1031L127.698 32.9489L126.7 31.4839C126.547 31.2526 126.393 31.0213 126.163 30.79L125.626 30.096L125.242 29.6334C125.165 27.9371 124.475 26.0866 123.016 24.6216C121.558 23.0024 119.639 22.0771 117.874 22C117.874 23.7734 118.565 25.7781 120.1 27.3973C121.481 28.8623 123.17 29.7105 124.782 29.9418L125.165 30.4816L125.703 31.1755L125.703 31.1755C125.856 31.4068 126.01 31.6381 126.24 31.8694L126.547 32.3321C125.933 31.8694 125.242 31.4068 124.475 31.1755C122.786 30.5587 121.098 30.6358 119.793 31.1755C120.407 32.4863 121.712 33.6429 123.4 34.2597C125.012 34.8765 126.624 34.7994 127.851 34.3368L128.158 34.8765L128.619 35.6476C128.657 35.7247 128.696 35.7825 128.734 35.8403C128.772 35.8982 128.811 35.956 128.849 36.0331L129.079 36.4186L129.924 37.9607L130.154 38.3463C130.192 38.4234 130.231 38.4812 130.269 38.539L130.269 38.539L130.269 38.539C130.307 38.5969 130.346 38.6547 130.384 38.7318L130.614 39.1173C129.77 38.3463 128.772 37.6523 127.544 37.2668C125.472 36.5728 123.477 36.65 121.865 37.421C122.633 38.9631 124.244 40.351 126.24 41.0449C128.158 41.6618 130.077 41.6618 131.535 41.0449V41.122L132.303 42.7412C132.38 42.8569 132.437 42.9918 132.495 43.1267L132.495 43.1268L132.495 43.1268C132.552 43.2617 132.61 43.3966 132.687 43.5123L132.994 44.3604L133.684 45.9797L134.298 47.676L134.605 48.5241L134.682 48.7554L134.759 48.9867V49.0639C133.915 47.9844 132.763 47.1362 131.382 46.4423C129.156 45.4399 126.777 45.2857 124.935 45.9797C125.703 47.8302 127.314 49.5265 129.54 50.5288C131.612 51.4541 133.684 51.6083 135.526 51.1457C135.526 51.1776 135.539 51.2096 135.555 51.247C135.577 51.2999 135.603 51.3638 135.603 51.4541L135.757 51.9167L135.987 52.7649L136.217 53.613C136.255 53.7669 136.294 53.9015 136.332 54.0362L136.332 54.0363L136.332 54.0364L136.332 54.0366L136.332 54.0367L136.332 54.0369L136.332 54.037L136.332 54.0371C136.371 54.1721 136.409 54.307 136.447 54.4612C137.138 57.0828 137.598 59.7814 137.905 62.4801C137.291 61.2464 136.371 60.0899 135.143 59.1646C133.07 57.4683 130.614 56.7744 128.465 56.9286C128.772 59.0875 130 61.3236 132.073 62.9428C133.991 64.4849 136.14 65.1788 138.136 65.1788L138.366 68.4172V70.1906V71.0388V71.5014V71.964L138.289 73.7375L138.212 75.5109C138.059 77.9011 137.752 80.2143 137.445 82.5274C137.215 81.1395 136.677 79.7516 135.833 78.3638C134.298 75.8964 131.996 74.2772 129.693 73.7375C129.233 76.0506 129.77 78.8264 131.305 81.2937C132.763 83.5298 134.759 85.0719 136.831 85.7658C136.729 86.1771 136.635 86.5883 136.541 86.9995C136.353 87.822 136.166 88.6444 135.91 89.4669L135.68 90.315C135.641 90.4692 135.603 90.6041 135.565 90.739L135.565 90.7391L135.565 90.7392C135.526 90.8741 135.488 91.009 135.45 91.1632L134.912 92.8595L134.298 94.5558C134.265 94.6234 134.246 94.691 134.229 94.7521C134.207 94.8304 134.188 94.898 134.145 94.9413L133.991 95.3269L133.684 96.175C132.917 98.1026 132.073 100.107 131.075 101.958C131.305 100.57 131.228 99.1821 130.921 97.64C130.307 94.5558 128.619 92.0113 126.547 90.5463C125.165 92.7053 124.628 95.7124 125.319 98.7966C125.933 101.649 127.314 103.963 129.156 105.505C128.542 106.584 127.851 107.664 127.161 108.666C125.396 111.442 123.323 114.063 121.174 116.531C121.405 114.989 121.328 113.369 120.791 111.673C119.946 109.052 118.335 107.047 116.339 105.967C115.342 107.972 115.188 110.594 115.956 113.215C116.646 115.451 117.951 117.225 119.486 118.381C119.294 118.613 119.083 118.825 118.872 119.037L118.872 119.037L118.872 119.037C118.661 119.249 118.45 119.461 118.258 119.692C116.57 121.388 114.881 122.93 113.039 124.395C111.197 125.86 109.355 127.248 107.36 128.559C106.976 128.79 106.899 129.33 107.13 129.639C107.36 130.024 107.897 130.101 108.204 129.87C110.199 128.559 112.118 127.094 113.96 125.552C115.802 124.01 117.567 122.391 119.256 120.694C121.174 118.767 123.016 116.685 124.705 114.526C127.007 115.76 130 116.145 133.147 115.374C136.294 114.603 138.826 112.753 140.285 110.517C137.905 109.052 134.836 108.666 131.689 109.437ZM125.933 106.507C126.47 108.281 126.009 109.977 124.782 110.362C123.554 110.748 122.172 109.668 121.635 107.895C121.098 106.122 121.558 104.425 122.786 104.04C124.014 103.654 125.396 104.811 125.933 106.507ZM133.049 92.4092C134.221 92.0365 134.736 90.3521 134.198 88.6469C133.661 86.9417 132.276 85.8615 131.104 86.2342C129.932 86.6069 129.417 88.2914 129.955 89.9965C130.492 91.7017 131.877 92.7819 133.049 92.4092ZM136.13 68.979C137.163 70.2758 137.276 71.9093 136.382 72.6277C135.489 73.3461 133.927 72.8772 132.894 71.5805C131.861 70.2838 131.748 68.6502 132.642 67.9318C133.535 67.2135 135.097 67.6823 136.13 68.979ZM128.075 121.414C128.178 120.14 126.789 118.988 124.972 118.839C123.156 118.691 121.599 119.603 121.496 120.876C121.393 122.149 122.782 123.302 124.599 123.45C126.415 123.599 127.972 122.687 128.075 121.414ZM139.283 102.279C139.667 103.497 138.569 104.932 136.831 105.485C135.094 106.037 133.374 105.498 132.99 104.28C132.606 103.062 133.704 101.626 135.442 101.074C137.179 100.521 138.899 101.061 139.283 102.279ZM143.211 86.5574C144.456 85.4011 144.812 83.754 144.007 82.8785C143.201 82.003 141.539 82.2305 140.294 83.3867C139.049 84.543 138.693 86.1901 139.498 87.0656C140.304 87.9411 141.966 87.7136 143.211 86.5574ZM142.882 58.0114C144.032 58.3067 144.624 59.8839 144.204 61.5341C143.784 63.1843 142.511 64.2827 141.361 63.9873C140.212 63.692 139.62 62.1148 140.04 60.4646C140.46 58.8144 141.732 57.716 142.882 58.0114Z"
     fill="#3DB9D8"
     id="path10" />
  <g
     id="textYear"
     dominant-baseline="middle"
     text-anchor="middle">
    <g
       aria-label="2024"
       id="text12"
       style="font-weight:400;font-size:12px;font-family:'Work Sans';fill:#3db9d8">
      <path
         d="m 62.033203,136.28516 h 4.130859 v 0.99609 h -5.554687 v -0.99609 q 0.673828,-0.69727 1.833984,-1.86914 1.166016,-1.17774 1.464844,-1.51758 0.568359,-0.63867 0.791016,-1.07813 0.228515,-0.44531 0.228515,-0.87304 0,-0.69727 -0.492187,-1.13672 -0.486328,-0.43946 -1.271485,-0.43946 -0.55664,0 -1.177734,0.19336 -0.615234,0.19336 -1.318359,0.58594 v -1.19531 q 0.714843,-0.28711 1.335937,-0.4336 0.621094,-0.14648 1.136719,-0.14648 1.359375,0 2.167969,0.67969 0.808593,0.67968 0.808593,1.8164 0,0.53907 -0.205078,1.02539 -0.199218,0.48047 -0.732422,1.13672 -0.146484,0.16992 -0.93164,0.98438 -0.785156,0.80859 -2.214844,2.26758 z"
         style="font-weight:400;font-size:12px;font-family:'Work Sans';fill:#3db9d8"
         id="path35" />
      <path
         d="m 71.179687,129.3125 q -0.914062,0 -1.376953,0.90234 -0.457031,0.89649 -0.457031,2.70118 0,1.79882 0.457031,2.70117 0.462891,0.89648 1.376953,0.89648 0.919922,0 1.376954,-0.89648 0.46289,-0.90235 0.46289,-2.70117 0,-1.80469 -0.46289,-2.70118 -0.457032,-0.90234 -1.376954,-0.90234 z m 0,-0.9375 q 1.470704,0 2.244141,1.16602 0.779297,1.16015 0.779297,3.375 0,2.20898 -0.779297,3.375 -0.773437,1.16015 -2.244141,1.16015 -1.470703,0 -2.25,-1.16015 -0.773437,-1.16602 -0.773437,-3.375 0,-2.21485 0.773437,-3.375 0.779297,-1.16602 2.25,-1.16602 z"
         style="font-weight:400;font-size:12px;font-family:'Work Sans';fill:#3db9d8"
         id="path37" />
      <path
         d="m 77.302734,136.28516 h 4.13086 v 0.99609 h -5.554688 v -0.99609 q 0.673828,-0.69727 1.833985,-1.86914 1.166015,-1.17774 1.464843,-1.51758 0.56836,-0.63867 0.791016,-1.07813 0.228516,-0.44531 0.228516,-0.87304 0,-0.69727 -0.492188,-1.13672 -0.486328,-0.43946 -1.271484,-0.43946 -0.556641,0 -1.177735,0.19336 -0.615234,0.19336 -1.318359,0.58594 v -1.19531 q 0.714844,-0.28711 1.335937,-0.4336 0.621094,-0.14648 1.136719,-0.14648 1.359375,0 2.167969,0.67969 0.808594,0.67968 0.808594,1.8164 0,0.53907 -0.205078,1.02539 -0.199219,0.48047 -0.732422,1.13672 -0.146485,0.16992 -0.931641,0.98438 -0.785156,0.80859 -2.214844,2.26758 z"
         style="font-weight:400;font-size:12px;font-family:'Work Sans';fill:#3db9d8"
         id="path39" />
      <path
         d="m 87.169922,129.56445 -2.988281,4.66992 h 2.988281 z m -0.310547,-1.03125 h 1.488281 v 5.70117 h 1.248047 v 0.98438 h -1.248047 v 2.0625 h -1.177734 v -2.0625 h -3.949219 v -1.14258 z"
         style="font-weight:400;font-size:12px;font-family:'Work Sans';fill:#3db9d8"
         id="path41" />
    </g>
  </g>
  <g
     id="text"
     dominant-baseline="middle"
     text-anchor="middle">
    <path
       d="m 35.7423,70.5 h 10.752 c 5.088,0 7.68,-2.048 7.68,-5.696 0,-2.56 -1.6,-4.512 -4.832,-4.96 v -0.032 c 2.8799,-0.448 4.288,-2.336 4.288,-4.736 0,-3.68 -2.4,-5.664 -7.616,-5.696 h -10.272 z m 5.312,-12.48 v -4.608 h 3.968 c 1.984,0 2.976,0.768 2.976,2.304 0,1.536 -0.992,2.304 -2.976,2.304 z m 0,8.608 v -4.672 h 4.512 c 1.984,0 2.976,0.832 2.976,2.304 0,1.536 -0.992,2.368 -2.976,2.368 z m 22.067,-0.384 v -4.32 h 8.704 v -4 h -8.704 v -4.288 h 10.944 V 49.38 H 57.6173 V 70.5 h 16.864 V 66.244 Z M 86.0608,49.06 c -5.792,0 -9.088,2.912 -9.088,6.88 0,4.128 3.232,5.6 8.224,6.592 2.88,0.544 4.096,1.088 4.096,2.08 0,1.216 -1.152,1.92 -3.52,1.92 -2.816,0 -4.864,-0.736 -6.592,-3.136 l -2.816,3.84 c 2.08,2.304 4.704,3.584 9.696,3.584 5.088,0 8.928,-2.368 8.928,-6.496 0,-3.712 -2.272,-5.6 -8.128,-6.656 -3.008,-0.544 -4.16,-1.12 -4.16,-2.208 0,-1.216 1.184,-2.112 3.456,-2.112 2.688,0 4.48,0.992 5.888,3.104 l 3.104,-3.584 c -2.432,-2.72 -5.12,-3.808 -9.088,-3.808 z m 29.7232,0.32 H 96.4875 v 4.256 H 103.4 V 70.5 h 5.504 V 53.636 h 6.88 z"
       fill="#35506d"
       id="path15" />
    <path
       d="m 72.1316,76.13 c -2.101,0 -3.421,1.43 -3.421,3.74 0,2.31 1.32,3.74 3.421,3.74 2.112,0 3.432,-1.43 3.432,-3.74 0,-2.31 -1.32,-3.74 -3.432,-3.74 z m 0,1.023 c 1.375,0 2.2,0.99 2.2,2.717 0,1.727 -0.825,2.717 -2.2,2.717 -1.364,0 -2.189,-0.99 -2.189,-2.717 0,-1.727 0.825,-2.717 2.189,-2.717 z m 10.4292,0.099 V 76.24 h -5.247 v 7.26 h 1.177 v -3.124 h 3.19 v -1.023 h -3.19 v -2.101 z"
       fill="#35506d"
       id="path17" />
    <g
       aria-label="Renton"
       id="text19"
       style="font-weight:700;font-size:16px;font-family:'PT Sans Narrow';fill:#35506d">
      <path
         d="m 48.445312,93.882812 q 0.945313,0 1.351563,-0.351562 0.414062,-0.351563 0.414062,-1.15625 0,-0.796875 -0.414062,-1.140625 -0.40625,-0.34375 -1.351563,-0.34375 h -1.265625 v 2.992187 z m -1.265625,2.078125 V 100.375 H 44.171875 V 88.710937 h 4.59375 q 2.304687,0 3.375,0.773438 1.078125,0.773437 1.078125,2.445312 0,1.15625 -0.5625,1.898438 -0.554688,0.742187 -1.679688,1.09375 0.617188,0.140625 1.101563,0.640625 0.492187,0.492187 0.992187,1.5 l 1.632813,3.3125 H 51.5 l -1.421875,-2.898438 q -0.429688,-0.875 -0.875,-1.195312 -0.4375,-0.320313 -1.171875,-0.320313 z"
         style="font-weight:700;font-size:16px;font-family:'PT Sans Narrow';fill:#35506d"
         id="path44" />
      <path
         d="m 65.101562,95.976562 v 0.796875 H 58.5625 q 0.101562,0.984375 0.710937,1.476563 0.609375,0.492187 1.703125,0.492187 0.882813,0 1.804688,-0.257812 0.929687,-0.265625 1.90625,-0.796875 v 2.15625 q -0.992188,0.375 -1.984375,0.5625 -0.992188,0.19531 -1.984375,0.19531 -2.375,0 -3.695313,-1.203123 -1.3125,-1.210937 -1.3125,-3.390625 0,-2.140625 1.289063,-3.367187 1.296875,-1.226563 3.5625,-1.226563 2.0625,0 3.296875,1.242188 1.242187,1.242187 1.242187,3.320312 z m -2.875,-0.929687 q 0,-0.796875 -0.46875,-1.28125 -0.460937,-0.492188 -1.210937,-0.492188 -0.8125,0 -1.320313,0.460938 -0.507812,0.453125 -0.632812,1.3125 z"
         style="font-weight:700;font-size:16px;font-family:'PT Sans Narrow';fill:#35506d"
         id="path46" />
      <path
         d="M 76.015625,95.046875 V 100.375 h -2.8125 v -0.867188 -3.210937 q 0,-1.132813 -0.05469,-1.5625 -0.04687,-0.429688 -0.171875,-0.632813 -0.164062,-0.273437 -0.445312,-0.421875 -0.28125,-0.15625 -0.640625,-0.15625 -0.875,0 -1.375,0.679688 -0.5,0.671875 -0.5,1.867187 V 100.375 H 67.21875 v -8.75 h 2.796875 v 1.28125 q 0.632812,-0.765625 1.34375,-1.125 0.710937,-0.367188 1.570312,-0.367188 1.515625,0 2.296875,0.929688 0.789063,0.929687 0.789063,2.703125 z"
         style="font-weight:700;font-size:16px;font-family:'PT Sans Narrow';fill:#35506d"
         id="path48" />
      <path
         d="M 81.664062,89.140625 V 91.625 h 2.882813 v 2 h -2.882813 v 3.710937 q 0,0.609375 0.242188,0.828125 0.242187,0.210938 0.960937,0.210938 h 1.4375 v 2 H 81.90625 q -1.65625,0 -2.351563,-0.6875 -0.6875,-0.695313 -0.6875,-2.351563 V 93.625 h -1.390625 v -2 h 1.390625 v -2.484375 z"
         style="font-weight:700;font-size:16px;font-family:'PT Sans Narrow';fill:#35506d"
         id="path50" />
      <path
         d="m 90.421875,93.414062 q -0.929688,0 -1.421875,0.671875 -0.484375,0.664063 -0.484375,1.921875 0,1.257813 0.484375,1.929688 0.492187,0.664062 1.421875,0.664062 0.914062,0 1.398437,-0.664062 0.484375,-0.671875 0.484375,-1.929688 0,-1.257812 -0.484375,-1.921875 -0.484375,-0.671875 -1.398437,-0.671875 z m 0,-2 q 2.257812,0 3.523437,1.21875 1.273438,1.21875 1.273438,3.375 0,2.15625 -1.273438,3.375 -1.265625,1.218748 -3.523437,1.218748 -2.265625,0 -3.546875,-1.218748 -1.273438,-1.21875 -1.273438,-3.375 0,-2.15625 1.273438,-3.375 1.28125,-1.21875 3.546875,-1.21875 z"
         style="font-weight:700;font-size:16px;font-family:'PT Sans Narrow';fill:#35506d"
         id="path52" />
      <path
         d="M 106.04688,95.046875 V 100.375 h -2.8125 v -0.867188 -3.210937 q 0,-1.132813 -0.0547,-1.5625 -0.0469,-0.429688 -0.17188,-0.632813 -0.16406,-0.273437 -0.44531,-0.421875 -0.28125,-0.15625 -0.64062,-0.15625 -0.875,0 -1.375,0.679688 -0.5,0.671875 -0.5,1.867187 V 100.375 H 97.25 v -8.75 h 2.79688 v 1.28125 q 0.63281,-0.765625 1.34375,-1.125 0.71093,-0.367188 1.57031,-0.367188 1.51562,0 2.29687,0.929688 0.78907,0.929687 0.78907,2.703125 z"
         style="font-weight:700;font-size:16px;font-family:'PT Sans Narrow';fill:#35506d"
         id="path54" />
    </g>
  </g>
  <g
     id="logo">
    <path
       fill-rule="evenodd"
       clip-rule="evenodd"
       d="m 84.1341,15.1957 c 0.2471,0.1616 0.3706,0.3555 0.4941,0.614 l 0.9573,-0.3231 C 85.3693,14.9372 85.0297,14.5171 84.5973,14.2585 84.2576,14.0646 83.8562,14 83.5165,14 c -0.3397,0 -0.7102,0.0323 -1.0808,0.2262 -0.4632,0.2262 -0.8338,0.7433 -0.8338,1.325 0,0.3878 0.1235,0.8079 0.4323,1.0665 0.2471,0.2585 0.5868,0.4201 0.9882,0.517 l 0.9573,0.2909 c 0.2162,0.0323 0.3397,0.1293 0.4632,0.2262 0.0927,0.097 0.1544,0.2585 0.1544,0.3878 0,0.1616 -0.0617,0.3232 -0.2161,0.4524 -0.1853,0.1293 -0.525,0.2263 -0.8029,0.2263 -0.3397,0 -0.7412,-0.1293 -0.9573,-0.4202 -0.1236,-0.1615 -0.2162,-0.4201 -0.2471,-0.6786 l -0.9882,0.2908 c 0.0618,0.3555 0.2162,0.7433 0.4633,1.0665 0.4323,0.5494 1.019,0.7433 1.6984,0.7433 0.5558,0 1.019,-0.0647 1.4205,-0.3555 0.4323,-0.2909 0.6794,-0.7756 0.6794,-1.2604 0,-0.4524 -0.1853,-0.8402 -0.4941,-1.1634 -0.2471,-0.2262 -0.4941,-0.3878 -0.9573,-0.517 l -0.8956,-0.2586 c -0.247,-0.0969 -0.494,-0.1939 -0.5867,-0.2908 -0.0617,-0.0647 -0.0926,-0.1616 -0.0926,-0.2586 0,-0.1615 0.0926,-0.3554 0.2779,-0.4524 0.1544,-0.0969 0.3706,-0.1616 0.6176,-0.1616 0.247,0 0.4632,0.097 0.6176,0.1939 z M 64.9573,14.1293 v 5.3969 H 64 v -5.3969 z m 4.6321,3.5548 v -3.5548 h 0.9882 v 5.3969 H 69.7129 L 67.3351,16.036 v 3.5225 h -0.9882 v -5.4292 h 0.8647 z m 5.8982,0.4848 c 0.2161,-0.4202 0.3088,-0.8726 0.3088,-1.325 0,-0.4525 -0.0927,-0.9049 -0.3088,-1.325 -0.4324,-0.8726 -1.297,-1.3896 -2.1617,-1.3896 h -1.7602 v 5.4292 h 1.7602 c 0.8647,0 1.7293,-0.5494 2.1617,-1.3896 z m -0.8647,-2.1653 c 0.1235,0.2263 0.1853,0.5171 0.1853,0.8403 0.0309,0.3231 -0.0618,0.614 -0.1853,0.9048 -0.247,0.5171 -0.8338,0.8726 -1.3587,0.8726 H 72.523 v -3.4902 h 0.7412 c 0.5867,0 1.1117,0.3555 1.3587,0.8725 z m 6.207,1.5189 c 0,0.5171 -0.1544,0.9695 -0.4632,1.3573 -0.4015,0.5171 -0.9882,0.7756 -1.6367,0.7756 -0.6485,0 -1.2661,-0.2585 -1.6367,-0.7756 -0.2779,-0.3878 -0.4632,-0.8725 -0.4632,-1.3573 v -3.3609 h 0.9882 v 3.3609 c 0,0.2586 0.0927,0.5171 0.2162,0.7433 0.2161,0.2909 0.5558,0.4524 0.8955,0.4524 0.3397,0 0.6794,-0.1615 0.8955,-0.4524 0.1544,-0.2262 0.2162,-0.4524 0.2162,-0.7433 v -3.3932 h 0.9882 z m 9.3259,-2.3591 H 88.55 v 4.3951 h -0.9882 v -4.3951 h -1.6366 v -1.0341 h 4.2306 z m 4.6321,4.3951 -0.9573,-2.036 c 0.2471,-0.1292 0.4632,-0.3231 0.5867,-0.517 0.2162,-0.3232 0.3397,-0.6787 0.3397,-1.0665 0,-0.3878 -0.1235,-0.7756 -0.3397,-1.0665 -0.2161,-0.3231 -0.5249,-0.5493 -0.8646,-0.6463 -0.1544,-0.0646 -0.3397,-0.0969 -0.525,-0.0969 h -2.3469 v 5.4292 h 0.9882 v -1.8421 h 1.1425 l 0.8647,1.8421 z M 93.0586,16.7469 H 91.669 v -1.6158 h 1.3896 c 0.1853,0 0.4323,0.1292 0.5558,0.2908 0.1236,0.1293 0.1853,0.3232 0.1853,0.5171 0,0.1616 -0.0617,0.3555 -0.1544,0.4848 -0.1544,0.1939 -0.4014,0.3231 -0.5867,0.3231 z m 6.2996,-2.6176 -1.7602,3.1993 v 2.1976 h -0.9881 v -2.1976 l -1.7602,-3.1993 h 1.1425 l 1.1117,2.0359 1.1117,-2.0359 z m -13.433,8.1115 c -0.1235,-0.2585 -0.2471,-0.4524 -0.4941,-0.614 -0.1544,-0.097 -0.3706,-0.1939 -0.6176,-0.1939 -0.2471,0 -0.4632,0.0646 -0.6176,0.1616 -0.1853,0.0969 -0.278,0.2908 -0.278,0.4524 0,0.0969 0.0309,0.1939 0.0927,0.2585 0.0926,0.097 0.3397,0.1939 0.5867,0.2909 l 0.8956,0.2585 c 0.4632,0.1293 0.7102,0.2909 0.9572,0.5171 0.3089,0.3231 0.4941,0.711 0.4941,1.1634 0,0.4847 -0.247,0.9695 -0.6793,1.2603 -0.4015,0.2909 -0.8647,0.3555 -1.4205,0.3555 -0.6794,0 -1.2661,-0.1939 -1.6985,-0.7433 -0.247,-0.3231 -0.4014,-0.7109 -0.4632,-1.0664 l 0.9882,-0.2909 c 0.0309,0.2586 0.1235,0.5171 0.247,0.6787 0.2162,0.2908 0.6177,0.4201 0.9573,0.4201 0.278,0 0.6177,-0.0969 0.8029,-0.2262 0.1544,-0.1293 0.2162,-0.2909 0.2162,-0.4524 0,-0.1293 -0.0618,-0.2909 -0.1544,-0.3878 -0.1235,-0.097 -0.247,-0.194 -0.4632,-0.2263 l -0.9573,-0.2908 c -0.4014,-0.097 -0.7411,-0.2586 -0.9882,-0.5171 -0.3088,-0.2585 -0.4323,-0.6786 -0.4323,-1.0664 0,-0.5817 0.3706,-1.0988 0.8338,-1.325 0.3705,-0.1939 0.7411,-0.2263 1.0808,-0.2263 0.3397,0 0.7411,0.0647 1.0808,0.2586 0.4323,0.2585 0.772,0.6786 0.9882,1.228 z M 64,23.3073 c 0,0.7432 0.2162,1.4219 0.6176,1.939 0.4632,0.5817 1.1735,0.8725 1.9146,0.8725 0.7411,0 1.4514,-0.2585 1.9146,-0.8725 0.4323,-0.5494 0.6176,-1.1958 0.6176,-1.939 -0.0309,-0.711 -0.1853,-1.3897 -0.6176,-1.9391 -0.4632,-0.5817 -1.1735,-0.8725 -1.9146,-0.8725 -0.772,0 -1.4514,0.2908 -1.9146,0.8725 C 64.1853,21.8853 64,22.564 64,23.3073 Z m 3.9836,0 c 0,0.4847 -0.0927,0.9695 -0.3397,1.3249 -0.247,0.3555 -0.6794,0.5171 -1.1117,0.5494 -0.4323,0 -0.8647,-0.1939 -1.1117,-0.5494 -0.247,-0.3878 -0.3397,-0.8402 -0.3397,-1.3249 0,-0.4848 0.0618,-0.9696 0.3397,-1.325 0.247,-0.3555 0.6794,-0.5494 1.1117,-0.5494 0.4323,0 0.8647,0.1939 1.1117,0.5494 0.247,0.3554 0.3397,0.8402 0.3397,1.325 z m 2.1307,-2.7147 h -1.019 l 1.5749,5.397 h 1.4514 l 1.6058,-5.397 h -1.0191 l -1.297,4.4275 z m 5.0645,1.0342 v 1.1634 h 1.9763 v 1.0341 h -1.9763 v 1.1634 h 2.4086 v 1.0019 h -3.3968 v -5.397 h 3.366 v 1.0342 z m 7.2878,4.3628 -0.9265,-2.0037 c 0.2471,-0.1293 0.4324,-0.3232 0.5868,-0.5171 0.2161,-0.3231 0.3397,-0.6786 0.3397,-1.0664 0,-0.3878 -0.1236,-0.7756 -0.3397,-1.0665 -0.2162,-0.3231 -0.525,-0.5493 -0.8647,-0.6463 -0.1544,-0.0646 -0.3397,-0.097 -0.525,-0.097 h -2.3469 v 5.397 h 0.9882 v -1.8421 h 1.1117 l 0.8647,1.8421 z m -1.6985,-2.7793 h -1.3896 v -1.6158 h 1.3896 c 0.1853,0 0.4324,0.1292 0.5559,0.2908 0.1235,0.1293 0.1853,0.3232 0.1853,0.5171 0,0.1616 -0.0618,0.3555 -0.1544,0.4847 -0.1544,0.1939 -0.4015,0.3232 -0.5868,0.3232 z m 7.8746,2.7793 v -5.397 h -0.9882 v 5.397 z m 5.7129,-2.8762 v 0.1939 c 0,0.7432 -0.1853,1.3896 -0.6177,1.939 -0.4632,0.5817 -1.1425,0.8725 -1.9145,0.8725 -0.7412,0 -1.4514,-0.2908 -1.9146,-0.8725 -0.4324,-0.5171 -0.5868,-1.2281 -0.6177,-1.939 0,-0.7433 0.1853,-1.3897 0.6177,-1.9391 0.4323,-0.5817 1.1734,-0.8725 1.9146,-0.8725 0.772,0 1.4513,0.3232 1.9145,0.8725 0.0927,0.097 0.1545,0.2263 0.2162,0.3555 l -0.8955,0.4201 -0.0927,-0.1939 c -0.247,-0.3554 -0.6793,-0.5493 -1.1117,-0.5493 -0.4323,0 -0.8646,0.1939 -1.1426,0.5493 -0.247,0.3555 -0.3396,0.8403 -0.3396,1.325 0,0.4848 0.0926,0.9372 0.3396,1.325 0.2471,0.3555 0.6794,0.5494 1.1426,0.5494 0.4324,0 0.8647,-0.1939 1.1117,-0.5494 0.1544,-0.1939 0.2162,-0.4201 0.278,-0.6786 h -1.2044 v -0.8079 z m 4.9409,2.8762 v -5.397 h -0.9882 v 2.5854 h -2.3161 v -2.5854 h -0.9881 v 5.397 h 0.9881 v -1.8098 h 2.3161 v 1.8098 z m 4.7245,-4.3628 h -1.606 v 4.3628 h -0.988 v -4.3628 h -1.6365 v -1.0342 h 4.2305 z"
       fill="#3db9d8"
       id="path22" />
    <path
       fill-rule="evenodd"
       clip-rule="evenodd"
       d="M 59.1163,14 H 47.5504 c -1.05,0 -1.8837,0.9049 -1.8837,2.0036 V 29 l 3,-3.1395 H 59.1163 C 60.1662,25.8605 61,24.9879 61,23.8891 V 16.0036 C 61,14.9049 60.1662,14.0323 59.1163,14 Z"
       fill="#3db9d8"
       id="path24" />
    <path
       fill-rule="evenodd"
       clip-rule="evenodd"
       d="m 53.3333,16.093 1.2222,2.2893 2.4445,0.4905 -1.6923,1.9295 0.282,2.6163 -2.2564,-1.1119 -2.2564,1.1119 0.2821,-2.6163 -1.6923,-1.9295 2.4444,-0.4905 z"
       fill="#ffffff"
       id="path26" />
  </g>
</svg>
